PathFileType	4	(X/Y/Z)	C:/Users/opensim2020/Desktop/walking_exp_matlab/subject06_walking21_straight_04.trc																																																																																																																																		
DataRate	CameraRate	NumFrames	NumMarkers	Units	OrigDataRate	OrigDataStartFrame	OrigNumFrames																																																																																																																														
100	100	4	44	mm	100	2335	104																																																																																																																														
Frame#	Time	LFHD			RFHD			LBHD			RBHD			C7			T10			CLAV			STRN			RBAK			LSHO			LUPA			LELB			LFRM			LWRA			LWRB			LFIN			RSHO			RUPA			RELB			RFRM			RWRA			RWRB			RFIN			LASI			RASI			LPSI			RPSI			LTHI			LKNE			LTIB			LANK			LHEE			LTOE			RTHI			RKNE			RTIB			RANK			RHEE			RTOE			*39			*40			*41			*42			*43		
		X1	Y1	Z1	X2	Y2	Z2	X3	Y3	Z3	X4	Y4	Z4	X5	Y5	Z5	X6	Y6	Z6	X7	Y7	Z7	X8	Y8	Z8	X9	Y9	Z9	X10	Y10	Z10	X11	Y11	Z11	X12	Y12	Z12	X13	Y13	Z13	X14	Y14	Z14	X15	Y15	Z15	X16	Y16	Z16	X17	Y17	Z17	X18	Y18	Z18	X19	Y19	Z19	X20	Y20	Z20	X21	Y21	Z21	X22	Y22	Z22	X23	Y23	Z23	X24	Y24	Z24	X25	Y25	Z25	X26	Y26	Z26	X27	Y27	Z27	X28	Y28	Z28	X29	Y29	Z29	X30	Y30	Z30	X31	Y31	Z31	X32	Y32	Z32	X33	Y33	Z33	X34	Y34	Z34	X35	Y35	Z35	X36	Y36	Z36	X37	Y37	Z37	X38	Y38	Z38	X39	Y39	Z39	X40	Y40	Z40	X41	Y41	Z41	X42	Y42	Z42	X43	Y43	Z43	X44	Y44	Z44
																																																																																																																																					
53	0.52	-348.11258	1636.78699	-1509.75891	-357.21021	1618.63257	-1379.21436	-480.95044	1582.28064	-1521.03967	-488.4812	1569.92737	-1393.31372	-485.79703	1422.10156	-1470.45105	-526.20337	1093.44897	-1462.12073	-373.71735	1344.90723	-1465.34753	-337.93924	1168.48462	-1477.36218	-564.03198	1250.67651	-1400.04956	-424.86371	1380.70276	-1628.48596	-394.98029	1187.53418	-1713.05469	-368.22052	1080.0575	-1735.1062	-253.77075	987.46967	-1750.59778	-134.63109	957.27942	-1697.0376	-166.49135	907.38965	-1735.62537	-77.93852	891.78632	-1733.41504	-431.81125	1372.83557	-1305.77319	-520.2951	1192.31946	-1225.3241	-544.19873	1073.23535	-1206.93323	-571.05249	956.90015	-1182.73303	-559.78265	802.41193	-1197.90063	-615.34326	826.63538	-1166.62524	-610.51294	741.93805	-1158.21606	-365.25641	928.73584	-1581.45325	-340.95407	937.99359	-1360.4873	-518.49243	960.23108	-1532.09924	-493.93478	960.71545	-1366.0072	-491.39713	627.99854	-1627.03125	-537.03967	468.20621	-1603.49915	-696.82935	261.81558	-1595.09021	-791.53473	117.34833	-1550.64282	-836.37396	124.3826	-1508.45032	-672.35614	37.92457	-1536.31018	-314.56635	615.71661	-1293.43384	-263.99411	503.87967	-1329.34607	-214.8307	247.2619	-1340.34656	-155.3313	70.84711	-1389.15833	-182.11093	38.33367	-1437.32739	0.40801	83.41611	-1391.85803	-452.30835	1671.43054	-1455.00732	NaN	NaN	NaN	NaN	NaN	NaN	NaN	NaN	NaN	NaN	NaN	NaN
54	0.53	-333.01736	1636.89758	-1509.12463	-342.00589	1618.70557	-1378.51172	-465.93564	1582.47449	-1520.32129	-473.35376	1570.04932	-1392.52112	-470.66827	1421.92285	-1469.6543	-509.47495	1093.14001	-1461.7373	-358.22809	1345.18909	-1464.56494	-321.55923	1168.99829	-1476.64136	-548.08472	1250.28967	-1399.59607	-409.71472	1380.75232	-1627.5625	-380.37625	1187.69507	-1712.03259	-354.0752	1080.24695	-1734.07434	-239.25929	988.61041	-1749.27014	-119.87569	959.72253	-1695.91064	-150.86681	909.19708	-1734.32336	-62.23045	895.11206	-1731.76514	-416.44531	1372.96594	-1305.01892	-504.21478	1192.06934	-1224.63916	-527.95532	1072.99744	-1206.38184	-555.55841	956.92126	-1181.84583	-544.8913	802.21173	-1197.19739	-600.35498	826.90082	-1165.68213	-596.25299	742.25073	-1157.32654	-347.57443	928.64471	-1580.75024	-323.39999	939.17975	-1359.65381	-500.67932	960.04236	-1531.95422	-476.49112	961.02625	-1365.80884	-473.87262	627.36975	-1627	-519.3009	467.58209	-1603.98706	-685.23309	266.14804	-1595.97827	-785.22729	124.85724	-1552.62939	-829.40924	134.29385	-1510.92871	-671.36572	37.8325	-1536.47644	-295.43085	617.63611	-1294.9613	-245.55692	505.95734	-1330.91394	-204.08365	245.53345	-1341.54272	-151.41034	67.7793	-1391.48315	-179.23042	37.98051	-1439.65601	4.4525	73.87124	-1393.48694	-437.11096	1671.59827	-1454.30322	NaN	NaN	NaN	NaN	NaN	NaN	NaN	NaN	NaN	NaN	NaN	NaN
55	0.54	-317.95673	1637.44104	-1508.52747	-326.65393	1619.20093	-1377.83313	-450.91553	1583.05933	-1519.58032	-458.06403	1570.56885	-1391.69885	-455.78571	1422.0166	-1468.73499	-492.21109	1093.02087	-1461.13049	-342.82645	1345.92896	-1463.71179	-304.75885	1170.01111	-1475.73071	-532.07837	1249.94934	-1398.91943	-394.81992	1381.18201	-1626.57166	-365.81	1188.07275	-1710.82263	-340.09927	1080.55823	-1732.93811	-225.13554	989.30835	-1748.05029	-105.73433	961.34698	-1694.91943	-136.33899	909.90479	-1732.37866	-47.2771	897.46509	-1730.60913	-401.00729	1373.50085	-1304.11487	-487.90448	1192.10071	-1223.78503	-511.24368	1072.97742	-1205.74463	-538.83362	956.93561	-1181.4469	-529.25024	802.23053	-1196.36206	-584.41156	827.15521	-1164.90039	-580.86914	742.53705	-1156.39478	-329.48138	928.88098	-1579.98914	-305.68823	940.38055	-1358.79651	-482.59625	960.38068	-1531.77881	-459.00577	962.00665	-1365.09351	-455.58905	626.75293	-1626.93506	-500.155	466.74567	-1604.29919	-672.95502	271.14459	-1597.3186	-777.45038	133.17805	-1554.77502	-820.83582	145.16295	-1513.21436	-670.38586	37.69546	-1536.58765	-276.68213	619.76282	-1297.20972	-227.89648	508.28598	-1334.03076	-193.92326	245.01811	-1344.0625	-146.04845	68.49881	-1391.91504	-175.40845	41.20058	-1440.23303	10.6923	62.87481	-1392.79248	-421.9433	1672.10425	-1453.4668	NaN	NaN	NaN	NaN	NaN	NaN	NaN	NaN	NaN	NaN	NaN	NaN
56	0.55	-302.83838	1638.88367	-1507.85559	-311.33154	1620.54883	-1377.04968	-435.87457	1584.40784	-1518.83704	-442.7395	1571.78613	-1390.78625	-440.86319	1422.94446	-1467.62671	-474.97296	1093.35669	-1460.95728	-327.25247	1347.51855	-1462.77039	-288.54333	1171.63025	-1474.82874	-516.17773	1249.85229	-1398.05481	-380.25067	1382.11169	-1625.73816	-351.36441	1188.64685	-1709.53149	-326.32132	1081.07263	-1731.59705	-211.47453	989.5238	-1746.90283	-92.11536	962.02386	-1694.11694	-122.71837	910.14655	-1731.03479	-33.42065	898.39905	-1729.52722	-385.52005	1374.66919	-1303.0603	-471.26721	1192.41199	-1222.81226	-494.1503	1073.33606	-1204.94263	-522.08063	957.35938	-1180.42041	-512.69373	802.52289	-1195.59717	-567.7395	827.69861	-1164.05737	-564.50824	743.13879	-1155.44385	-311.8157	929.1228	-1578.84521	-288.04584	941.94623	-1358.09949	-464.32111	961.19312	-1531.8866	-441.45963	964.25104	-1364.55151	-436.34695	626.10999	-1626.63867	-479.46429	465.74289	-1604.35168	-658.37347	276.13004	-1597.40381	-767.92877	142.38942	-1557.02112	-809.94366	157.10452	-1515.4187	-669.46545	37.61853	-1536.73962	-259.32974	622.34747	-1298.39392	-211.26262	511.22223	-1335.63049	-180.40947	247.26587	-1341.79016	-139.20245	69.93412	-1389.97668	-171.73932	43.27397	-1437.94312	15.57444	57.03472	-1392.19934	-406.82275	1673.38354	-1452.62903	NaN	NaN	NaN	NaN	NaN	NaN	NaN	NaN	NaN	NaN	NaN	NaN
